<svg xmlns="http://www.w3.org/2000/svg" viewBox="0 0 512 512" width="512" height="512">
  <rect width="512" height="512" rx="110" fill="#000000"/>
  <g>
    <path d="M 65 360 L 115 200 H 155 L 205 360 H 170 L 158 318 H 112 L 100 360 Z M 121 286 H 149 L 135 236 Z" fill="#ffffff"/>
    <circle cx="218" cy="212" r="10" fill="#e74c3c"/>
    <circle cx="256" cy="190" r="12" fill="#e74c3c"/>
    <circle cx="294" cy="212" r="10" fill="#e74c3c"/>
    <path d="M 218 222 L 236 270 L 256 214 L 276 270 L 294 222 L 310 326 H 202 Z" fill="#e74c3c"/>
    <rect x="202" y="342" width="108" height="18" rx="4" fill="#e74c3c"/>
    <path d="M 307 200 H 337 V 264 H 381 V 200 H 411 V 360 H 381 V 292 H 337 V 360 H 307 Z" fill="#ffffff"/>
  </g>
</svg>